# xmcd
#
# Track frame offsets: 
#        150
#        13275
#        31873
#        47535
#        60879
#        85534
#        97765
#        111416
#        124415
#        139962
#
# Disc length: 2078 seconds
#
# Revision: 0
# Processed by: cddbd v1.5.1PL0 Copyright (c) Steve Scherf et al.
# Submitted via: ExactAudioCopy v0.95a5
#
DISCID=79081c0a
DTITLE=The Blind Boys of Mississippi - All You Got to Do
DYEAR=1900
DGENRE=Gospel
TTITLE0=Thank the Lord I'm Singing Again
TTITLE1=Peace Among Nations
TTITLE2=He's My Friend
TTITLE3=Whisper A Prayer
TTITLE4=All You Got to Do
TTITLE5=I'm Just Another Soldier
TTITLE6=Save A Seat for Me
TTITLE7=Walk Together Children
TTITLE8=Mother Told Me About Jesus
TTITLE9=I Can't Even Walk
EXTD=
EXTT0=
EXTT1=
EXTT2=
EXTT3=
EXTT4=
EXTT5=
EXTT6=
EXTT7=
EXTT8=
EXTT9=
PLAYORDER=
